HIERARCHY
ROOT Hips
{
	OFFSET -3.958830 18.904000 13.208200
	CHANNELS 6 Xposition Yposition Zposition Zrotation Yrotation Xrotation 
	JOINT LHipJoint
	{
		OFFSET 0.000000 0.000000 0.000000
		CHANNELS 3 Zrotation Yrotation Xrotation
		JOINT LeftUpLeg
		{
			OFFSET 1.800000 -1.400000 0.085000
			CHANNELS 3 Zrotation Yrotation Xrotation
			JOINT LeftLeg
			{
				OFFSET 2.215000 -6.000000 0.000000
				CHANNELS 3 Zrotation Yrotation Xrotation
				JOINT LeftFoot
				{
					OFFSET 2.500000 -6.900000 0.000000
					CHANNELS 3 Zrotation Yrotation Xrotation
					JOINT LeftToeBase
					{
						OFFSET 0.200000 -0.500000 1.950000
						CHANNELS 3 Zrotation Yrotation Xrotation
						End Site
						{
							OFFSET 0.000000 0.000000 0.000000
						}
					}
				}
			}
		}
	}
	JOINT RHipJoint
	{
		OFFSET 0.000000 0.000000 0.000000
		CHANNELS 3 Zrotation Yrotation Xrotation
		JOINT RightUpLeg
		{
			OFFSET -1.800000 -1.400000 0.085000
			CHANNELS 3 Zrotation Yrotation Xrotation
			JOINT RightLeg
			{
				OFFSET -2.215000 -6.000000 0.000000
				CHANNELS 3 Zrotation Yrotation Xrotation
				JOINT RightFoot
				{
					OFFSET -2.500000 -6.900000 0.000000
					CHANNELS 3 Zrotation Yrotation Xrotation
					JOINT RightToeBase
					{
						OFFSET -0.200000 -0.500000 1.950000
						CHANNELS 3 Zrotation Yrotation Xrotation
						End Site
						{
							OFFSET 0.000000 0.000000 0.000000
						}
					}
				}
			}
		}
	}
	JOINT LowerBack
	{
		OFFSET 0.000000 0.000000 0.000000
		CHANNELS 3 Zrotation Yrotation Xrotation
		JOINT Spine
		{
			OFFSET -0.087000 1.940000 -0.288900
			CHANNELS 3 Zrotation Yrotation Xrotation
			JOINT Spine1
			{
				OFFSET 0.000000 1.950000 0.060000
				CHANNELS 3 Zrotation Yrotation Xrotation
				JOINT Neck
				{
					OFFSET 0.000000 0.000000 0.000000
					CHANNELS 3 Zrotation Yrotation Xrotation
					JOINT Neck1
					{
						OFFSET 0.000000 1.600000 0.340000
						CHANNELS 3 Zrotation Yrotation Xrotation
						JOINT Head
						{
							OFFSET 0.000000 1.667000 -0.240000
							CHANNELS 3 Zrotation Yrotation Xrotation
							End Site
							{
								OFFSET 0.000000 0.000000 0.000000
							}
						}
					}
				}
				JOINT LeftShoulder
				{
					OFFSET 0.000000 0.000000 0.000000
					CHANNELS 3 Zrotation Yrotation Xrotation
					JOINT LeftArm
					{
						OFFSET 2.700000 1.550000 -0.730000
						CHANNELS 3 Zrotation Yrotation Xrotation
						JOINT LeftForeArm
						{
							OFFSET 5.450000 0.000000 0.000000
							CHANNELS 3 Zrotation Yrotation Xrotation
							JOINT LeftHand
							{
								OFFSET 3.450000 0.000000 0.000000
								CHANNELS 3 Zrotation Yrotation Xrotation
								JOINT LeftHandIndex1
								{
									OFFSET 0.750000 0.000000 0.000000
									CHANNELS 3 Zrotation Yrotation Xrotation
									End Site
									{
										OFFSET 0.000000 0.000000 0.000000
									}
								}
							}
						}
					}
				}
				JOINT RightShoulder
				{
					OFFSET 0.000000 0.000000 0.000000
					CHANNELS 3 Zrotation Yrotation Xrotation
					JOINT RightArm
					{
						OFFSET -2.700000 1.550000 -0.730000
						CHANNELS 3 Zrotation Yrotation Xrotation
						JOINT RightForeArm
						{
							OFFSET -5.450000 0.000000 0.000000
							CHANNELS 3 Zrotation Yrotation Xrotation
							JOINT RightHand
							{
								OFFSET -3.450000 0.000000 0.000000
								CHANNELS 3 Zrotation Yrotation Xrotation
								JOINT RightHandIndex1
								{
									OFFSET -0.750000 0.000000 0.000000
									CHANNELS 3 Zrotation Yrotation Xrotation
									End Site
									{
										OFFSET 0.000000 0.000000 0.000000
									}
								}
							}
						}
					}
				}
			}
		}
	}
}
MOTION
Frames: 10
Frame Time: 0.016667
-10.120820 17.478510 -0.366780 -22.372256 1.154012 -3.995246 -16.119202 12.825200 3.945794 30.153791 1.681602 -4.259589 -7.904589 5.700696 -4.437087 0.687664 6.166078 2.447057 0.445980 -0.044930 0.469450 17.743466 -4.812083 6.676665 -52.928816 3.047137 -24.959237 134.315881 -28.529892 -0.182714 -2.349297 -8.873222 1.617891 -0.278140 -0.448960 -0.017740 -1.488157 -9.779179 -10.826352 48.685987 -12.142310 27.643700 -15.975659 7.065107 1.577735 10.004883 -0.467200 -33.315801 -6.929850 -15.574091 48.428889 6.708310 -24.642640 -18.953450 -12.045169 -26.358762 14.141404 -12.094706 13.844966 1.199492 6.062589 0.876822 0.142488 -3.150976 2.846188 0.725760 -0.579610 0.213800 0.105280 -7.936593 44.378465 15.867246 20.492404 29.787507 -8.676554 -11.597835 31.697611 -2.435698 2.135759 -1.415662 0.064670 -0.146540 -0.295880 -0.164280 
-9.956270 17.502940 -0.402110 -22.561993 1.667792 -4.508750 -16.088190 12.819144 3.799593 29.324166 1.602547 -4.310956 -8.017030 5.691086 -4.042921 0.697997 6.021774 2.481844 0.444480 -0.040330 0.463950 17.780318 -4.754588 6.824217 -52.506173 3.255916 -24.402691 133.537216 -26.179755 -0.202623 -2.278003 -8.588014 1.675713 -0.294460 -0.470570 -0.002420 -1.562853 -9.752222 -10.763090 49.476625 -13.517465 27.689072 -17.344823 6.689137 1.979106 10.046418 -0.149332 -33.692611 -6.759415 -15.107731 48.705039 7.851950 -24.499510 -18.472740 -10.608297 -26.868633 14.691706 -13.034827 14.326302 1.119936 5.961688 1.953340 0.172478 -3.151585 2.878283 0.712610 -0.592740 0.229090 0.100230 -9.654744 44.431786 15.854604 20.391066 30.741683 -8.479774 -14.340496 29.910620 -3.046828 2.210805 -1.441503 0.096910 -0.191360 -0.303930 -0.152120 
-9.813100 17.536080 -0.401460 -22.988055 1.780481 -4.384632 -16.110895 12.956952 3.783556 28.823132 1.475888 -4.863737 -7.963259 5.684450 -3.741214 0.641527 5.955715 2.497465 0.432780 -0.065300 0.489390 17.741427 -4.765000 6.749065 -52.015571 3.001938 -24.798781 132.728109 -26.924296 0.082806 -2.307667 -8.710386 1.630120 -0.297040 -0.480310 -0.014620 -1.485794 -10.009865 -10.714611 50.021494 -13.745891 27.645656 -17.500805 6.804586 0.672800 9.882728 0.361449 -33.212129 -5.711561 -15.198501 48.921965 6.878170 -23.759870 -18.372890 -12.104840 -26.805954 14.838539 -11.774596 15.520133 1.217322 5.495190 -1.109220 0.149970 -3.060546 2.902868 0.735250 -0.596580 0.228930 0.077740 -8.152110 43.839701 15.317130 21.381819 30.745272 -7.189171 -14.701937 28.820915 -2.996931 2.270299 -1.384612 0.070430 -0.178000 -0.292670 -0.179980 
-9.674180 17.559520 -0.398960 -22.954582 1.257597 -4.779703 -16.143727 13.078345 3.658206 27.882066 1.468874 -4.324782 -7.960263 5.702341 -3.346167 0.620603 5.876063 2.525264 0.488370 -0.012960 0.546270 17.709959 -4.675834 6.858528 -51.786905 3.555889 -25.724932 129.686712 -25.307006 0.997458 -2.306668 -8.649315 1.620693 -0.269690 -0.516020 0.006360 -1.395050 -10.184604 -10.721696 49.525033 -13.745852 28.707251 -16.748286 6.714743 0.288397 10.120871 0.456091 -32.580602 -5.158923 -15.276947 47.894336 6.053430 -22.597720 -19.593450 -13.155336 -26.465802 14.756594 -11.109549 15.377319 1.395215 5.466734 2.110598 0.093648 -3.129580 2.880340 0.751220 -0.609990 0.256730 0.080480 -7.651418 43.419998 14.817865 20.977494 30.312553 -6.922398 -14.426220 28.738689 -2.864429 2.283334 -1.396990 0.087950 -0.199470 -0.323470 -0.195200 
-9.545230 17.554640 -0.409550 -23.298101 1.998019 -5.468456 -16.120326 12.971714 3.484179 27.247550 1.277091 -3.683942 -7.652723 5.653736 -3.198681 0.584771 5.815033 2.562942 0.482530 -0.017660 0.564490 17.760932 -4.598577 7.104890 -51.663238 3.439058 -27.031079 127.134067 -22.093842 1.150368 -2.229684 -8.387484 1.677228 -0.260050 -0.506700 0.020120 -1.465895 -9.887536 -10.745475 49.356066 -13.911453 28.980069 -15.772900 6.229592 0.874845 9.756789 1.085110 -31.944225 -3.201776 -16.598572 44.906793 4.597280 -21.794890 -19.475390 -12.939958 -27.111597 15.108215 -10.955163 14.893553 1.364955 4.593854 2.386200 -0.006689 -3.156659 2.860393 0.745550 -0.583190 0.254670 0.072180 -7.708118 42.791029 14.174166 19.891008 29.158988 -7.539202 -13.648999 29.684711 -2.689904 2.242250 -1.412261 0.074090 -0.196680 -0.320030 -0.208950 
-9.417270 17.546420 -0.427540 -23.485993 2.856506 -6.457031 -16.066335 12.971956 3.359079 26.178663 1.077683 -2.800317 -7.236491 5.546397 -3.205331 0.521520 5.747019 2.614051 0.460100 -0.046850 0.550790 17.795170 -4.770612 7.092403 -50.496263 3.924280 -27.136702 122.424377 -21.266260 2.406883 -2.218505 -8.466560 1.648422 -0.256580 -0.468690 0.025240 -1.575391 -9.520873 -10.645962 49.250525 -14.160049 29.117658 -14.928837 5.400584 2.183744 9.604826 1.276953 -31.272734 -2.337052 -17.332570 42.641109 4.916430 -21.540770 -20.811610 -12.285408 -27.738969 15.409576 -11.619664 14.164191 1.196151 5.304988 -0.177105 0.048734 -3.121773 2.898696 0.762380 -0.554930 0.236600 0.064300 -8.440989 42.341739 13.552803 18.641838 28.064069 -8.457930 -13.351952 30.450069 -2.637417 2.171973 -1.403713 0.038970 -0.161640 -0.286510 -0.225230 
-9.302180 17.519770 -0.448820 -23.156647 3.665722 -6.927401 -16.009677 12.929622 3.244712 24.653434 0.777803 -2.136820 -6.902231 5.325482 -3.411058 0.371251 5.666563 2.653768 0.453710 -0.095810 0.586360 17.827955 -5.037620 7.060758 -49.531207 4.216343 -27.949651 117.400465 -21.314876 3.914305 -2.224444 -8.662146 1.553042 -0.236490 -0.443910 0.042140 -1.683872 -8.941174 -10.581138 47.890573 -13.366515 29.077270 -13.149296 4.673569 3.131413 8.878774 2.168092 -30.350675 0.548630 -18.778442 39.372094 4.022660 -20.777560 -22.018120 -12.552088 -28.323891 15.600009 -10.521542 13.646912 1.195591 5.910139 -1.135846 -0.046783 -3.171174 2.890607 0.812380 -0.522860 0.208280 0.027620 -7.581734 41.316080 12.884934 17.171674 27.149690 -8.582855 -12.877527 30.392120 -2.409796 2.116807 -1.381485 -0.025390 -0.133570 -0.234580 -0.286990 
-9.170360 17.488930 -0.439370 -22.861032 3.380833 -6.986539 -15.962524 12.972284 3.217074 23.157684 0.576017 -1.059285 -6.799394 5.166550 -3.854706 0.341974 5.571054 2.716896 0.477960 -0.067650 0.616040 17.835819 -5.306094 6.920526 -47.624143 5.170679 -28.736020 111.066020 -21.939109 6.106780 -2.254323 -8.930415 1.452814 -0.203590 -0.450990 0.022760 -1.773344 -8.569352 -10.503983 47.211210 -12.642608 28.570450 -11.940309 4.390846 3.756772 8.593530 2.339947 -29.917476 1.327086 -19.475002 38.411277 2.604920 -20.585930 -21.562760 -12.875716 -28.449264 15.613952 -10.287396 13.495327 1.064447 6.596258 -1.734052 -0.017562 -3.146028 2.910316 0.817290 -0.521520 0.207010 0.038060 -6.864748 40.870718 12.697719 16.396790 26.039323 -8.989427 -12.382394 31.140886 -2.330524 2.097094 -1.412833 -0.047940 -0.116440 -0.258570 -0.298890 
-9.051030 17.451110 -0.430050 -22.599372 3.565566 -6.607158 -15.891659 12.938269 3.163416 21.796305 0.348479 -0.731990 -7.119254 5.081991 -3.791078 0.327272 5.415368 2.787466 0.513170 -0.004980 0.647650 17.872289 -5.599887 6.807405 -45.470154 5.904160 -29.481292 104.386255 -21.751164 7.904066 -2.244691 -9.063414 1.407192 -0.165290 -0.461290 0.010110 -1.927985 -8.006107 -10.415873 46.759126 -11.807955 27.482063 -11.139065 4.416985 3.378540 7.758353 3.062640 -29.084637 3.441460 -20.580554 36.623264 1.041720 -20.147890 -20.831650 -13.662962 -28.473858 15.601481 -8.563029 13.723284 0.997735 6.118978 -3.132226 -0.009673 -3.109585 2.929552 0.787840 -0.504330 0.212350 0.054840 -4.927978 39.752458 12.388797 16.552898 25.224383 -8.801137 -11.874543 32.138097 -2.350611 2.099011 -1.446119 -0.041120 -0.111670 -0.302590 -0.296060 
-8.929200 17.413300 -0.424800 -21.951961 3.834314 -6.595750 -15.834336 12.991822 3.103854 20.090856 0.234651 -0.307862 -7.505183 5.071721 -3.393435 0.309908 5.306785 2.839359 0.486490 -0.046680 0.619210 17.888193 -5.873422 6.676318 -42.882843 6.776435 -29.253346 97.479895 -20.880967 9.428264 -2.186885 -9.089345 1.367778 -0.189380 -0.432090 0.026720 -2.042669 -7.636811 -10.308951 46.012243 -11.535520 27.179931 -11.122035 4.687492 3.050147 6.908549 3.249293 -28.933726 4.046103 -20.752404 36.060190 2.135210 -20.644290 -19.703520 -12.944308 -28.675161 15.566605 -8.057659 13.257693 0.820329 5.964527 -4.074381 -0.034559 -3.125754 2.947607 0.777620 -0.487380 0.191150 0.053870 -4.094469 39.170238 12.579068 17.181075 23.780039 -9.801661 -11.198706 34.530331 -2.485754 2.048312 -1.500761 -0.042130 -0.127710 -0.280740 -0.288400 
